TITLE ""
FILE "TOEIC LR Kinnojyukugo_03.mp3" MP3
  TRACK 01 AUDIO
    TITLE "TOEIC LR Kinnojyukugo_03_01"
    INDEX 01 00:00:00
  TRACK 02 AUDIO
    TITLE "TOEIC LR Kinnojyukugo_03_02"
    INDEX 01 00:00:12
  TRACK 03 AUDIO
    TITLE "TOEIC LR Kinnojyukugo_03_03"
    INDEX 01 00:01:22
  TRACK 04 AUDIO
    TITLE "TOEIC LR Kinnojyukugo_03_04"
    INDEX 01 00:01:57
  TRACK 05 AUDIO
    TITLE "TOEIC LR Kinnojyukugo_03_05"
    INDEX 01 00:04:41
  TRACK 06 AUDIO
    TITLE "TOEIC LR Kinnojyukugo_03_06"
    INDEX 01 00:05:43
  TRACK 07 AUDIO
    TITLE "TOEIC LR Kinnojyukugo_03_07"
    INDEX 01 00:06:50
  TRACK 08 AUDIO
    TITLE "TOEIC LR Kinnojyukugo_03_08"
    INDEX 01 00:07:18
  TRACK 09 AUDIO
    TITLE "TOEIC LR Kinnojyukugo_03_09"
    INDEX 01 00:09:43
  TRACK 10 AUDIO
    TITLE "TOEIC LR Kinnojyukugo_03_10"
    INDEX 01 00:10:42
  TRACK 11 AUDIO
    TITLE "TOEIC LR Kinnojyukugo_03_11"
    INDEX 01 00:11:53
  TRACK 12 AUDIO
    TITLE "TOEIC LR Kinnojyukugo_03_12"
    INDEX 01 00:12:17
  TRACK 13 AUDIO
    TITLE "TOEIC LR Kinnojyukugo_03_13"
    INDEX 01 00:14:46
  TRACK 14 AUDIO
    TITLE "TOEIC LR Kinnojyukugo_03_14"
    INDEX 01 00:15:47
  TRACK 15 AUDIO
    TITLE "TOEIC LR Kinnojyukugo_03_15"
    INDEX 01 00:16:54
  TRACK 16 AUDIO
    TITLE "TOEIC LR Kinnojyukugo_03_16"
    INDEX 01 00:17:07
  TRACK 17 AUDIO
    TITLE "TOEIC LR Kinnojyukugo_03_17"
    INDEX 01 00:19:29
  TRACK 18 AUDIO
    TITLE "TOEIC LR Kinnojyukugo_03_18"
    INDEX 01 00:20:31
  TRACK 19 AUDIO
    TITLE "TOEIC LR Kinnojyukugo_03_19"
    INDEX 01 00:21:38
  TRACK 20 AUDIO
    TITLE "TOEIC LR Kinnojyukugo_03_20"
    INDEX 01 00:22:00
  TRACK 21 AUDIO
    TITLE "TOEIC LR Kinnojyukugo_03_21"
    INDEX 01 00:24:48
  TRACK 22 AUDIO
    TITLE "TOEIC LR Kinnojyukugo_03_22"
    INDEX 01 00:25:47
  TRACK 23 AUDIO
    TITLE "TOEIC LR Kinnojyukugo_03_23"
    INDEX 01 00:26:59
  TRACK 24 AUDIO
    TITLE "TOEIC LR Kinnojyukugo_03_24"
    INDEX 01 00:27:21
  TRACK 25 AUDIO
    TITLE "TOEIC LR Kinnojyukugo_03_25"
    INDEX 01 00:30:04
  TRACK 26 AUDIO
    TITLE "TOEIC LR Kinnojyukugo_03_26"
    INDEX 01 00:31:05
  TRACK 27 AUDIO
    TITLE "TOEIC LR Kinnojyukugo_03_27"
    INDEX 01 00:32:08
  TRACK 28 AUDIO
    TITLE "TOEIC LR Kinnojyukugo_03_28"
    INDEX 01 00:32:48
  TRACK 29 AUDIO
    TITLE "TOEIC LR Kinnojyukugo_03_29"
    INDEX 01 00:34:58
  TRACK 30 AUDIO
    TITLE "TOEIC LR Kinnojyukugo_03_30"
    INDEX 01 00:35:64
  TRACK 31 AUDIO
    TITLE "TOEIC LR Kinnojyukugo_03_31"
    INDEX 01 00:37:02
  TRACK 32 AUDIO
    TITLE "TOEIC LR Kinnojyukugo_03_32"
    INDEX 01 00:37:41
  TRACK 33 AUDIO
    TITLE "TOEIC LR Kinnojyukugo_03_33"
    INDEX 01 00:39:51
  TRACK 34 AUDIO
    TITLE "TOEIC LR Kinnojyukugo_03_34"
    INDEX 01 00:40:53
  TRACK 35 AUDIO
    TITLE "TOEIC LR Kinnojyukugo_03_35"
    INDEX 01 00:41:52
  TRACK 36 AUDIO
    TITLE "TOEIC LR Kinnojyukugo_03_36"
    INDEX 01 00:42:15
  TRACK 37 AUDIO
    TITLE "TOEIC LR Kinnojyukugo_03_37"
    INDEX 01 00:44:37
  TRACK 38 AUDIO
    TITLE "TOEIC LR Kinnojyukugo_03_38"
    INDEX 01 00:45:40
  TRACK 39 AUDIO
    TITLE "TOEIC LR Kinnojyukugo_03_39"
    INDEX 01 00:46:46
  TRACK 40 AUDIO
    TITLE "TOEIC LR Kinnojyukugo_03_40"
    INDEX 01 00:47:08
  TRACK 41 AUDIO
    TITLE "TOEIC LR Kinnojyukugo_03_41"
    INDEX 01 00:49:03
